<mxfile host="app.diagrams.net" agent="Mozilla/5.0 (Windows NT 10.0; Win64; x64) AppleWebKit/537.36 (KHTML, like Gecko) Chrome/127.0.0.0 Safari/537.36" version="24.7.5">
  <diagram name="第 1 页" id="uH3TVAWIQt2XayS9qn-8">
    <mxGraphModel dx="1434" dy="746" grid="1" gridSize="10" guides="1" tooltips="1" connect="1" arrows="1" fold="1" page="1" pageScale="1" pageWidth="827" pageHeight="1169" math="0" shadow="0">
      <root>
        <mxCell id="0" />
        <mxCell id="1" parent="0" />
        <mxCell id="2DkYYkOKmbYoW_dt8JYe-14" style="edgeStyle=orthogonalEdgeStyle;rounded=0;orthogonalLoop=1;jettySize=auto;html=1;" edge="1" parent="1" source="-r84uZp2z0_sLQ8WuwAP-1" target="-r84uZp2z0_sLQ8WuwAP-2">
          <mxGeometry relative="1" as="geometry" />
        </mxCell>
        <mxCell id="-r84uZp2z0_sLQ8WuwAP-1" value="开始" style="shape=hexagon;perimeter=hexagonPerimeter2;whiteSpace=wrap;html=1;fixedSize=1;" parent="1" vertex="1">
          <mxGeometry x="330" y="30" width="120" height="80" as="geometry" />
        </mxCell>
        <mxCell id="-r84uZp2z0_sLQ8WuwAP-4" style="edgeStyle=orthogonalEdgeStyle;rounded=0;orthogonalLoop=1;jettySize=auto;html=1;" parent="1" source="-r84uZp2z0_sLQ8WuwAP-2" target="-r84uZp2z0_sLQ8WuwAP-3" edge="1">
          <mxGeometry relative="1" as="geometry" />
        </mxCell>
        <mxCell id="-r84uZp2z0_sLQ8WuwAP-5" value="开票" style="edgeLabel;html=1;align=center;verticalAlign=middle;resizable=0;points=[];" parent="-r84uZp2z0_sLQ8WuwAP-4" vertex="1" connectable="0">
          <mxGeometry y="1" relative="1" as="geometry">
            <mxPoint as="offset" />
          </mxGeometry>
        </mxCell>
        <mxCell id="-r84uZp2z0_sLQ8WuwAP-2" value="业务系统" style="rounded=0;whiteSpace=wrap;html=1;" parent="1" vertex="1">
          <mxGeometry x="330" y="150" width="120" height="60" as="geometry" />
        </mxCell>
        <mxCell id="-r84uZp2z0_sLQ8WuwAP-3" value="&lt;span style=&quot;background-color: initial;&quot;&gt;&lt;span style=&quot;&quot; class=&quot;15&quot;&gt;&lt;font style=&quot;&quot;&gt;调用财务系统接口&lt;/font&gt;&lt;font style=&quot;color: rgb(0, 0, 255); font-family: 宋体; text-decoration-line: underline;&quot; face=&quot;Times New Roman&quot;&gt;api&lt;/font&gt;&lt;/span&gt;&lt;/span&gt;&lt;u style=&quot;background-color: initial;&quot;&gt;&lt;span style=&quot;font-family: &amp;quot;Times New Roman&amp;quot;; color: rgb(0, 0, 255);&quot; class=&quot;15&quot;&gt;/finaInvoiceRecordController/service&lt;/span&gt;&lt;/u&gt;" style="rounded=0;whiteSpace=wrap;html=1;" parent="1" vertex="1">
          <mxGeometry x="330" y="250" width="120" height="60" as="geometry" />
        </mxCell>
        <mxCell id="2DkYYkOKmbYoW_dt8JYe-2" style="edgeStyle=orthogonalEdgeStyle;rounded=0;orthogonalLoop=1;jettySize=auto;html=1;" edge="1" parent="1" source="-r84uZp2z0_sLQ8WuwAP-7" target="2DkYYkOKmbYoW_dt8JYe-1">
          <mxGeometry relative="1" as="geometry" />
        </mxCell>
        <mxCell id="2DkYYkOKmbYoW_dt8JYe-13" value="不存在" style="edgeLabel;html=1;align=center;verticalAlign=middle;resizable=0;points=[];" vertex="1" connectable="0" parent="2DkYYkOKmbYoW_dt8JYe-2">
          <mxGeometry x="0.2636" y="1" relative="1" as="geometry">
            <mxPoint as="offset" />
          </mxGeometry>
        </mxCell>
        <mxCell id="-r84uZp2z0_sLQ8WuwAP-7" value="是否存在相同&lt;div&gt;order_no&lt;br&gt;&lt;/div&gt;" style="rhombus;whiteSpace=wrap;html=1;" parent="1" vertex="1">
          <mxGeometry x="353" y="350" width="80" height="80" as="geometry" />
        </mxCell>
        <mxCell id="2DkYYkOKmbYoW_dt8JYe-22" style="edgeStyle=orthogonalEdgeStyle;rounded=0;orthogonalLoop=1;jettySize=auto;html=1;" edge="1" parent="1" source="2DkYYkOKmbYoW_dt8JYe-1" target="2DkYYkOKmbYoW_dt8JYe-16">
          <mxGeometry relative="1" as="geometry">
            <Array as="points">
              <mxPoint x="210" y="670" />
              <mxPoint x="360" y="670" />
            </Array>
          </mxGeometry>
        </mxCell>
        <mxCell id="2DkYYkOKmbYoW_dt8JYe-1" value="增加开票记录" style="rounded=0;whiteSpace=wrap;html=1;" vertex="1" parent="1">
          <mxGeometry x="150" y="570" width="120" height="60" as="geometry" />
        </mxCell>
        <mxCell id="2DkYYkOKmbYoW_dt8JYe-4" style="edgeStyle=orthogonalEdgeStyle;rounded=0;orthogonalLoop=1;jettySize=auto;html=1;entryX=0.583;entryY=0.167;entryDx=0;entryDy=0;entryPerimeter=0;" edge="1" parent="1" source="-r84uZp2z0_sLQ8WuwAP-7">
          <mxGeometry relative="1" as="geometry">
            <mxPoint x="529.96" y="470.02" as="targetPoint" />
          </mxGeometry>
        </mxCell>
        <mxCell id="2DkYYkOKmbYoW_dt8JYe-5" value="存在" style="edgeLabel;html=1;align=center;verticalAlign=middle;resizable=0;points=[];" vertex="1" connectable="0" parent="2DkYYkOKmbYoW_dt8JYe-4">
          <mxGeometry x="0.0874" y="-2" relative="1" as="geometry">
            <mxPoint as="offset" />
          </mxGeometry>
        </mxCell>
        <mxCell id="2DkYYkOKmbYoW_dt8JYe-10" style="edgeStyle=orthogonalEdgeStyle;rounded=0;orthogonalLoop=1;jettySize=auto;html=1;" edge="1" parent="1" source="2DkYYkOKmbYoW_dt8JYe-6" target="2DkYYkOKmbYoW_dt8JYe-8">
          <mxGeometry relative="1" as="geometry" />
        </mxCell>
        <mxCell id="2DkYYkOKmbYoW_dt8JYe-11" value="有退费" style="edgeLabel;html=1;align=center;verticalAlign=middle;resizable=0;points=[];" vertex="1" connectable="0" parent="2DkYYkOKmbYoW_dt8JYe-10">
          <mxGeometry x="0.1077" y="-1" relative="1" as="geometry">
            <mxPoint as="offset" />
          </mxGeometry>
        </mxCell>
        <mxCell id="2DkYYkOKmbYoW_dt8JYe-12" style="edgeStyle=orthogonalEdgeStyle;rounded=0;orthogonalLoop=1;jettySize=auto;html=1;" edge="1" parent="1" source="2DkYYkOKmbYoW_dt8JYe-6">
          <mxGeometry relative="1" as="geometry">
            <mxPoint x="440" y="560" as="targetPoint" />
          </mxGeometry>
        </mxCell>
        <mxCell id="2DkYYkOKmbYoW_dt8JYe-6" value="是否存退费&lt;div&gt;order_no&lt;br&gt;&lt;/div&gt;" style="rhombus;whiteSpace=wrap;html=1;" vertex="1" parent="1">
          <mxGeometry x="490" y="470" width="80" height="80" as="geometry" />
        </mxCell>
        <mxCell id="2DkYYkOKmbYoW_dt8JYe-33" style="edgeStyle=orthogonalEdgeStyle;rounded=0;orthogonalLoop=1;jettySize=auto;html=1;" edge="1" parent="1" source="2DkYYkOKmbYoW_dt8JYe-8" target="2DkYYkOKmbYoW_dt8JYe-26">
          <mxGeometry relative="1" as="geometry">
            <Array as="points">
              <mxPoint x="720" y="600" />
              <mxPoint x="720" y="1490" />
            </Array>
          </mxGeometry>
        </mxCell>
        <mxCell id="2DkYYkOKmbYoW_dt8JYe-8" value="更新开票状态可冲红&lt;div&gt;status=5&lt;br&gt;&lt;div&gt;&lt;span style=&quot;color: rgba(0, 0, 0, 0); font-family: monospace; font-size: 0px; text-align: start; text-wrap: nowrap;&quot;&gt;%3CmxGraphModel%3E%3Croot%3E%3CmxCell%20id%3D%220%22%2F%3E%3CmxCell%20id%3D%221%22%20parent%3D%220%22%2F%3E%3CmxCell%20id%3D%222%22%20value%3D%22%22%20style%3D%22rounded%3D0%3BwhiteSpace%3Dwrap%3Bhtml%3D1%3B%22%20vertex%3D%221%22%20parent%3D%221%22%3E%3CmxGeometry%20x%3D%22140%22%20y%3D%22460%22%20width%3D%22120%22%20height%3D%2260%22%20as%3D%22geometry%22%2F%3E%3C%2FmxCell%3E%3C%2Froot%3E%3C%2FmxGraphModel%3E&lt;/span&gt;&lt;span style=&quot;color: rgba(0, 0, 0, 0); font-family: monospace; font-size: 0px; text-align: start; text-wrap: nowrap; background-color: initial;&quot;&gt;%3CmxGraphModel%3E%3Croot%3E%3CmxCell%20id%3D%220%22%2F%3E%3CmxCell%20id%3D%221%22%20parent%3D%220%22%2F%3E%3CmxCell%20id%3D%222%22%20value%3D%22%22%20style%3D%22rounded%3D0%3BwhiteSpace%3Dwrap%3Bhtml%3D1%3B%22%20vertex%3D%221%22%20parent%3D%221%22%3E%3CmxGeometry%20x%3D%22140%22%20y%3D%22460%22%20width%3D%22120%22%20height%3D%2260%22%20as%3D%22geometry%22%2F%3E%3C%2FmxCell%3E%3C%2Froot%3E%3C%2FmxGraphModel%3E&lt;/span&gt;&lt;span style=&quot;background-color: initial; font-size: 0px; text-wrap: nowrap;&quot;&gt;&lt;font face=&quot;monospace&quot; color=&quot;rgba(0, 0, 0, 0)&quot;&gt;status=5&lt;/font&gt;&lt;/span&gt;&lt;br&gt;&lt;/div&gt;&lt;/div&gt;" style="rounded=0;whiteSpace=wrap;html=1;" vertex="1" parent="1">
          <mxGeometry x="580" y="570" width="120" height="60" as="geometry" />
        </mxCell>
        <mxCell id="2DkYYkOKmbYoW_dt8JYe-23" style="edgeStyle=orthogonalEdgeStyle;rounded=0;orthogonalLoop=1;jettySize=auto;html=1;entryX=0.5;entryY=0;entryDx=0;entryDy=0;" edge="1" parent="1" source="2DkYYkOKmbYoW_dt8JYe-9" target="2DkYYkOKmbYoW_dt8JYe-16">
          <mxGeometry relative="1" as="geometry">
            <Array as="points">
              <mxPoint x="450" y="670" />
              <mxPoint x="360" y="670" />
            </Array>
          </mxGeometry>
        </mxCell>
        <mxCell id="2DkYYkOKmbYoW_dt8JYe-9" value="&lt;div&gt;&lt;div&gt;更新开票信息&lt;/div&gt;&lt;/div&gt;" style="rounded=0;whiteSpace=wrap;html=1;" vertex="1" parent="1">
          <mxGeometry x="390" y="570" width="120" height="60" as="geometry" />
        </mxCell>
        <mxCell id="2DkYYkOKmbYoW_dt8JYe-15" style="edgeStyle=orthogonalEdgeStyle;rounded=0;orthogonalLoop=1;jettySize=auto;html=1;entryX=0.463;entryY=0.1;entryDx=0;entryDy=0;entryPerimeter=0;" edge="1" parent="1" source="-r84uZp2z0_sLQ8WuwAP-3" target="-r84uZp2z0_sLQ8WuwAP-7">
          <mxGeometry relative="1" as="geometry" />
        </mxCell>
        <mxCell id="2DkYYkOKmbYoW_dt8JYe-24" style="edgeStyle=orthogonalEdgeStyle;rounded=0;orthogonalLoop=1;jettySize=auto;html=1;entryX=0.5;entryY=0;entryDx=0;entryDy=0;" edge="1" parent="1" source="2DkYYkOKmbYoW_dt8JYe-16" target="2DkYYkOKmbYoW_dt8JYe-17">
          <mxGeometry relative="1" as="geometry" />
        </mxCell>
        <mxCell id="2DkYYkOKmbYoW_dt8JYe-16" value="财务点击“开具发票”" style="rounded=0;whiteSpace=wrap;html=1;" vertex="1" parent="1">
          <mxGeometry x="294" y="710" width="120" height="60" as="geometry" />
        </mxCell>
        <mxCell id="2DkYYkOKmbYoW_dt8JYe-30" style="edgeStyle=orthogonalEdgeStyle;rounded=0;orthogonalLoop=1;jettySize=auto;html=1;" edge="1" parent="1" source="2DkYYkOKmbYoW_dt8JYe-17" target="2DkYYkOKmbYoW_dt8JYe-29">
          <mxGeometry relative="1" as="geometry" />
        </mxCell>
        <mxCell id="2DkYYkOKmbYoW_dt8JYe-17" value="推送金税开票&lt;div&gt;表：uf_invoice_record&lt;/div&gt;&lt;div&gt;字段&lt;/div&gt;&lt;div&gt;&lt;span style=&quot;text-align: center;&quot;&gt;status=3&lt;/span&gt;&lt;br&gt;&lt;/div&gt;&lt;div&gt;&lt;span style=&quot;text-align: center;&quot;&gt;增加定时任务task_type =1&lt;/span&gt;&lt;/div&gt;" style="rounded=0;whiteSpace=wrap;html=1;align=left;" vertex="1" parent="1">
          <mxGeometry x="294" y="810" width="120" height="110" as="geometry" />
        </mxCell>
        <mxCell id="2DkYYkOKmbYoW_dt8JYe-27" style="edgeStyle=orthogonalEdgeStyle;rounded=0;orthogonalLoop=1;jettySize=auto;html=1;" edge="1" parent="1" source="2DkYYkOKmbYoW_dt8JYe-18" target="2DkYYkOKmbYoW_dt8JYe-26">
          <mxGeometry relative="1" as="geometry">
            <Array as="points">
              <mxPoint x="520" y="1490" />
            </Array>
          </mxGeometry>
        </mxCell>
        <mxCell id="2DkYYkOKmbYoW_dt8JYe-18" value="&lt;div&gt;定时任务获取开票结果&lt;/div&gt;&lt;div&gt;表：uf_invoice_record&lt;/div&gt;&lt;div&gt;字段&lt;/div&gt;&lt;div&gt;&lt;span style=&quot;text-align: center;&quot;&gt;status=1&lt;/span&gt;&lt;/div&gt;&lt;div&gt;&lt;span style=&quot;text-align: center; background-color: initial;&quot;&gt;FILE_PATH&lt;/span&gt;&lt;/div&gt;&lt;div&gt;&lt;span style=&quot;text-align: center; background-color: initial;&quot;&gt;FILE_XML_PATH&lt;/span&gt;&lt;/div&gt;&lt;div&gt;&lt;br&gt;&lt;/div&gt;&lt;div&gt;&lt;div&gt;表uf_jiaofei_detail&lt;/div&gt;&lt;div&gt;字段is_invoice=1&lt;/div&gt;&lt;/div&gt;" style="rounded=0;whiteSpace=wrap;html=1;align=left;" vertex="1" parent="1">
          <mxGeometry x="460" y="1190" width="120" height="210" as="geometry" />
        </mxCell>
        <mxCell id="2DkYYkOKmbYoW_dt8JYe-20" style="edgeStyle=orthogonalEdgeStyle;rounded=0;orthogonalLoop=1;jettySize=auto;html=1;entryX=0.5;entryY=0;entryDx=0;entryDy=0;" edge="1" parent="1" source="2DkYYkOKmbYoW_dt8JYe-19" target="2DkYYkOKmbYoW_dt8JYe-18">
          <mxGeometry relative="1" as="geometry" />
        </mxCell>
        <mxCell id="2DkYYkOKmbYoW_dt8JYe-28" value="是" style="edgeLabel;html=1;align=center;verticalAlign=middle;resizable=0;points=[];" vertex="1" connectable="0" parent="2DkYYkOKmbYoW_dt8JYe-20">
          <mxGeometry x="0.0568" y="4" relative="1" as="geometry">
            <mxPoint as="offset" />
          </mxGeometry>
        </mxCell>
        <mxCell id="2DkYYkOKmbYoW_dt8JYe-32" style="edgeStyle=orthogonalEdgeStyle;rounded=0;orthogonalLoop=1;jettySize=auto;html=1;entryX=0;entryY=0.5;entryDx=0;entryDy=0;" edge="1" parent="1" source="2DkYYkOKmbYoW_dt8JYe-19" target="2DkYYkOKmbYoW_dt8JYe-29">
          <mxGeometry relative="1" as="geometry">
            <Array as="points">
              <mxPoint x="220" y="1150" />
              <mxPoint x="220" y="990" />
            </Array>
          </mxGeometry>
        </mxCell>
        <mxCell id="2DkYYkOKmbYoW_dt8JYe-19" value="&lt;div&gt;是否获取到开票结果&lt;/div&gt;" style="rhombus;whiteSpace=wrap;html=1;" vertex="1" parent="1">
          <mxGeometry x="314" y="1110" width="80" height="80" as="geometry" />
        </mxCell>
        <mxCell id="2DkYYkOKmbYoW_dt8JYe-26" value="结束" style="shape=hexagon;perimeter=hexagonPerimeter2;whiteSpace=wrap;html=1;fixedSize=1;" vertex="1" parent="1">
          <mxGeometry x="303" y="1450" width="120" height="80" as="geometry" />
        </mxCell>
        <mxCell id="2DkYYkOKmbYoW_dt8JYe-31" style="edgeStyle=orthogonalEdgeStyle;rounded=0;orthogonalLoop=1;jettySize=auto;html=1;" edge="1" parent="1" source="2DkYYkOKmbYoW_dt8JYe-29" target="2DkYYkOKmbYoW_dt8JYe-19">
          <mxGeometry relative="1" as="geometry" />
        </mxCell>
        <mxCell id="2DkYYkOKmbYoW_dt8JYe-29" value="定时任务获取开票" style="rounded=0;whiteSpace=wrap;html=1;align=left;" vertex="1" parent="1">
          <mxGeometry x="294" y="960" width="120" height="60" as="geometry" />
        </mxCell>
      </root>
    </mxGraphModel>
  </diagram>
</mxfile>
